<svg width="163" height="80" viewBox="0 0 163 80" fill="none" xmlns="http://www.w3.org/2000/svg">
<path d="M12.6695 56.1217C11.8925 56.1897 11.3945 55.8679 11.3447 55.298L11.3402 55.2462C11.2903 54.6764 11.6821 54.3811 12.5018 54.205C15.6818 53.5614 15.5006 51.4893 15.1652 47.656L13.1711 24.863C12.8357 21.0297 12.6544 18.9576 9.61815 18.8578C8.88385 18.8177 8.49858 18.5904 8.44872 18.0206L8.44419 17.9688C8.39434 17.399 8.77703 17.0001 9.45046 16.9412L16.91 16.2885C17.428 16.2432 17.8087 16.4187 18.0613 16.9186L32.1841 43.5049C32.5584 44.2029 33.1846 44.2003 33.4274 43.3961L42.4083 14.7885C42.5747 14.3042 42.9146 14.0134 43.4327 13.9681L51.1512 13.2928C51.8246 13.2339 52.2707 13.5603 52.3206 14.1301L52.3251 14.1819C52.375 14.7517 52.035 15.0425 51.3189 15.2095C48.3461 15.835 48.5273 17.9071 48.8627 21.7404L50.8568 44.5334C51.1922 48.3667 51.3735 50.4388 54.617 50.5204C55.4549 50.5515 55.8919 50.7743 55.9418 51.3441L55.9463 51.3959C55.9962 51.9657 55.5617 52.3691 54.7846 52.4371L42.9738 53.4704C42.1967 53.5384 41.6988 53.2166 41.6489 52.6468L41.6444 52.595C41.5945 52.0251 41.9863 51.7299 42.8061 51.5537C45.9861 50.9101 45.8048 48.8381 45.4694 45.0047L43.5795 23.4032C43.5025 22.5226 42.7591 22.3788 42.469 23.2394L33.2233 53.5927C33.0569 54.077 32.7687 54.3632 32.3543 54.3995C31.9399 54.4358 31.6064 54.2039 31.3584 53.7559L16.9377 26.1517C16.5026 25.3546 15.7864 25.5216 15.868 26.454L17.7035 47.4339C18.0389 51.2673 18.2201 53.3393 21.4636 53.421C22.3015 53.4521 22.7386 53.6748 22.7884 54.2446L22.793 54.2964C22.8428 54.8663 22.4083 55.2697 21.6313 55.3377L12.6695 56.1217Z" fill="#0C0B0A"/>
<path d="M62.652 24.6055C63.2218 24.5557 63.6162 24.8865 63.666 25.4564L65.0755 41.5668C65.2658 43.7425 65.7683 48.292 69.498 47.9657C71.1039 47.8252 72.7363 46.795 74.618 44.4381C74.9489 44.0437 75.0208 43.6721 74.98 43.2058L73.9875 31.8612C73.6521 28.0278 73.4708 25.9557 71.108 25.7971C70.5291 25.7433 70.1957 25.5115 70.1458 24.9417L70.1413 24.8899C70.0914 24.32 70.4223 23.9257 70.9403 23.8804L76.8976 23.3592C77.4674 23.3093 77.8617 23.6402 77.9116 24.21L79.3891 41.0975C79.6746 44.3611 79.6758 46.7621 82.1125 45.9747C82.8241 45.7559 83.3512 45.8142 83.5992 46.2623C83.8472 46.7103 83.5817 47.2556 82.9355 47.6253L80.0488 49.235L77.5066 50.6058C77.1103 50.8493 76.7522 50.9328 76.3378 50.969C75.9234 51.0053 75.6327 50.6653 75.5828 50.0955L75.3789 47.7644C75.3063 46.9356 74.7184 46.7782 74.203 47.4497C72.1885 50.0793 70.4505 51.6929 67.7568 51.9286C62.5248 52.3863 60.9092 47.0468 60.5059 42.4364L59.6901 33.112C59.3547 29.2787 59.1735 27.2066 56.8106 27.0479C56.2317 26.9942 55.8983 26.7623 55.8484 26.1925L55.8439 26.1407C55.794 25.5709 56.1249 25.1766 56.6429 25.1312L62.652 24.6055Z" fill="#0C0B0A"/>
<path d="M87.3473 50.2146C87.0365 50.2418 86.7457 49.9019 86.6959 49.332L85.9843 41.1991C85.9345 40.6293 86.1618 40.244 86.5244 40.2123C86.9388 40.176 87.2205 40.4124 87.4257 40.9686C88.7544 44.8195 91.0648 47.958 94.7427 47.6363C97.54 47.3915 98.8001 45.0889 98.6143 42.9651C98.3515 39.9605 95.3618 38.6039 91.7642 37.4571C87.2024 36.0293 85.1491 33.4424 84.8409 29.9198C84.4738 25.7239 86.6431 21.8802 91.2535 21.4768C93.8436 21.2502 95.9073 22.1658 96.8915 22.0797C97.1505 22.0571 97.405 21.9826 97.6323 21.5973C97.9586 21.1512 98.1432 20.8741 98.5058 20.8423C98.8166 20.8151 99.0555 21.1596 99.1054 21.7294L99.6835 28.9345C99.7334 29.5043 99.5061 29.8896 99.1435 29.9213C98.7291 29.9576 98.4474 29.7212 98.294 29.1604C97.1479 25.6068 95.5135 23.0355 91.8874 23.3527C89.0901 23.5974 87.8501 25.5329 88.0313 27.605C88.2172 29.7289 89.7246 30.8497 92.5452 32.0645C100.246 35.3579 102.24 37.2714 102.566 41.0011C103.015 46.1296 99.6762 49.136 94.9622 49.5484C92.2685 49.7841 89.6823 48.862 88.8535 48.9345C88.439 48.9707 88.1891 49.097 88.0563 49.3696C87.7863 49.863 87.7099 50.1829 87.3473 50.2146Z" fill="#0C0B0A"/>
<path d="M106.038 47.953C105.52 47.9983 105.126 47.6675 105.076 47.0976L105.071 47.0458C105.021 46.476 105.31 46.1898 105.87 46.0363C108.17 45.4698 107.988 43.3977 107.653 39.5643L106.81 29.9291C106.525 26.6656 106.523 24.2646 104.03 25.0047C103.319 25.2235 102.848 25.2125 102.6 24.7644C102.352 24.3163 102.617 23.7711 103.264 23.4014L106.15 21.7917L108.744 20.4164C109.141 20.1729 109.499 20.0894 109.913 20.0531C110.328 20.0169 110.618 20.3568 110.668 20.9266L112.263 39.161C112.599 42.9943 112.78 45.0664 115.143 45.2251C115.722 45.2788 116.055 45.5107 116.105 46.0805L116.11 46.1323C116.159 46.7021 115.829 47.0965 115.311 47.1418L106.038 47.953ZM104.026 12.4252C103.867 10.6121 105.191 9.03476 107.004 8.87613C108.921 8.70845 110.356 10.201 110.501 11.8587C110.66 13.6718 109.383 15.1928 107.57 15.3514C105.757 15.51 104.185 14.2383 104.026 12.4252Z" fill="#0C0B0A"/>
<path d="M127.775 46.6777C120.471 47.3167 116.858 39.4376 116.342 33.5321C115.707 26.2798 119.352 19.0185 126.708 18.375C131.94 17.9172 135.257 21.2287 135.507 24.0778C135.624 25.4247 135.055 26.675 133.138 26.8427C131.066 27.024 130.106 25.5943 129.727 23.6439C129.442 21.5809 128.292 20.3765 126.013 20.5759C121.247 20.9928 120.352 26.8652 120.683 30.6468C121.072 35.1018 123.581 42.2945 129.434 41.7824C132.75 41.4923 134.397 38.8427 135.609 35.3959C135.819 34.8034 136.111 34.569 136.535 34.6364C136.963 34.7555 137.15 35.1046 137.04 35.6362C136.151 40.986 133.525 46.1746 127.775 46.6777Z" fill="#0C0B0A"/>
<path fill-rule="evenodd" clip-rule="evenodd" d="M11.296 19.2368C11.6239 19.4101 11.8861 19.6418 12.0987 19.9307C12.1258 19.9676 12.1521 20.0053 12.1776 20.0441C12.6262 20.7244 12.8352 21.6917 12.9836 22.9334C13.0206 23.2429 13.0538 23.5695 13.086 23.913C13.1082 24.15 13.13 24.3949 13.1522 24.6479C13.1551 24.6806 13.158 24.7135 13.1609 24.7466C13.1642 24.7852 13.1676 24.824 13.1711 24.863L15.1652 47.656C15.1715 47.7283 15.1778 47.8001 15.184 47.8712C15.2113 48.1839 15.237 48.4846 15.2595 48.7734C15.5026 51.8968 15.3578 53.627 12.5018 54.205C11.6821 54.3811 11.2903 54.6764 11.3402 55.2462L11.3447 55.298C11.3514 55.3744 11.3661 55.4462 11.3884 55.5133C11.4169 55.5989 11.4578 55.6766 11.5103 55.7459C11.7239 56.0278 12.1293 56.169 12.6695 56.1217L21.6313 55.3377C22.1715 55.2904 22.5462 55.081 22.7076 54.7662C22.7352 54.7124 22.7565 54.6556 22.7714 54.596C22.778 54.5698 22.7832 54.5432 22.7873 54.516C22.7976 54.4461 22.7996 54.3728 22.793 54.2964L22.7884 54.2446C22.7567 53.8819 22.568 53.6598 22.2189 53.5382C22.0196 53.4689 21.7681 53.4323 21.4636 53.421C18.5507 53.3477 18.1076 51.6689 17.8046 48.5507C17.7766 48.2624 17.7498 47.9618 17.7223 47.6491C17.7161 47.578 17.7098 47.5063 17.7035 47.4339L15.868 26.454C15.7864 25.5216 16.5026 25.3546 16.9377 26.1517L31.3584 53.7559C31.6064 54.2039 31.9399 54.4358 32.3543 54.3995C32.7687 54.3632 33.0569 54.077 33.2233 53.5927L42.469 23.2394C42.7591 22.3788 43.5025 22.5226 43.5795 23.4032L45.4694 45.0047C45.4758 45.0771 45.482 45.1488 45.4882 45.2199C45.5155 45.5327 45.5413 45.8333 45.5638 46.1221C45.7696 48.7664 45.6973 50.4121 43.9374 51.2055C43.6185 51.3493 43.2442 51.4651 42.8061 51.5537C42.539 51.6111 42.3174 51.6811 42.1417 51.7692C41.7779 51.9514 41.6108 52.2108 41.6444 52.595L41.6489 52.6468C41.661 52.785 41.6995 52.9087 41.762 53.0157C41.9569 53.3498 42.3853 53.5219 42.9738 53.4704L54.7846 52.4371C54.865 52.4301 54.9418 52.4194 55.0147 52.4054C55.6464 52.2839 55.991 51.9068 55.9463 51.3959L55.9418 51.3441C55.8919 50.7743 55.4549 50.5515 54.617 50.5204C54.4519 50.5163 54.2948 50.507 54.1451 50.4925C53.8897 50.4679 53.6562 50.4283 53.4424 50.374C51.5714 49.8982 51.2145 48.29 50.958 45.6502C50.93 45.3619 50.9031 45.0613 50.8757 44.7485C50.8694 44.6774 50.8632 44.6057 50.8568 44.5334L48.8627 21.7404C48.8564 21.6681 48.8501 21.5963 48.8439 21.5252C48.8317 21.3849 48.8197 21.247 48.8082 21.1115C48.799 21.0028 48.7901 20.8956 48.7815 20.7901C48.7468 20.3627 48.7182 19.9608 48.7009 19.5836C48.6534 18.5484 48.6913 17.7002 48.9246 17.0275C48.9251 17.0258 48.9257 17.0241 48.9263 17.0224C48.9462 16.9653 48.9676 16.9094 48.9904 16.8548C49.3393 16.0196 50.0349 15.4797 51.3189 15.2095C52.035 15.0425 52.375 14.7517 52.3251 14.1819L52.3206 14.1301C52.2707 13.5603 51.8246 13.2339 51.1512 13.2928L43.4327 13.9681C42.9645 14.0091 42.6418 14.2504 42.4612 14.654C42.4419 14.697 42.4243 14.7419 42.4083 14.7885L33.4274 43.3961C33.1846 44.2003 32.5584 44.2029 32.1841 43.5049L18.0613 16.9186C17.8087 16.4187 17.428 16.2432 16.91 16.2885L9.45046 16.9412C8.77703 17.0001 8.39434 17.399 8.44419 17.9688L8.44872 18.0206C8.49858 18.5904 8.88385 18.8177 9.61815 18.8578C10.3161 18.8808 10.8632 19.0079 11.296 19.2368ZM25.1484 13.2071C24.4371 11.8412 23.2299 10.3287 21.3083 9.31826C19.3864 8.30777 17.5182 8.20477 16.2127 8.31899L8.75321 8.97161C7.0462 9.12095 4.79061 9.78628 2.94435 11.6824C0.976302 13.7036 0.269202 16.3179 0.474634 18.666L0.479166 18.7178C0.672561 20.9283 1.73597 23.5125 4.25696 25.2387C4.57975 25.4597 4.90371 25.65 5.22368 25.8139L7.15722 47.9143C6.89633 48.0929 6.63499 48.2919 6.37738 48.5135C4.05846 50.5086 3.14182 53.3285 3.3706 55.9435L3.37513 55.9953C3.61193 58.7019 5.0679 61.2082 7.4777 62.7226C9.62926 64.0747 11.8525 64.2237 13.3668 64.0913L22.3285 63.3072C23.786 63.1797 25.8449 62.6813 27.6772 61.1237C29.0823 61.9946 30.8708 62.5599 33.0516 62.3691C35.2047 62.1807 36.8532 61.333 38.0808 60.2512C40.1376 61.4366 42.2268 61.5663 43.671 61.44L55.4819 60.4067C56.9028 60.2823 58.8955 59.8055 60.6925 58.3382C63.0855 59.6512 65.7524 60.1345 68.454 59.8981C70.3869 59.729 72.0631 59.2238 73.5234 58.5195C74.6233 58.8921 75.8132 59.0455 77.035 58.9386C78.2222 58.8347 79.7801 58.5307 81.4371 57.5753L82.7508 56.867C84.1161 57.7539 85.9007 58.3717 88.0445 58.1842C89.0109 58.0996 90.0246 57.8454 91.0078 57.3691C92.2659 57.5415 93.8922 57.6726 95.6595 57.518C98.0667 57.3074 100.554 56.6503 102.82 55.3943C104.122 55.8799 105.474 56.0329 106.735 55.9226L116.008 55.1113C117.538 54.9774 119.134 54.4381 120.522 53.4159C122.819 54.4035 125.473 54.9096 128.472 54.6472C133.951 54.1679 138.029 51.3254 140.684 47.7024C143.147 44.3394 144.346 40.4084 144.916 37.0413C145.172 35.6374 145.23 33.5176 144.106 31.329C143.655 30.449 143.091 29.7105 142.465 29.0991C143.493 26.9949 143.608 24.888 143.476 23.3806C142.767 15.2775 134.74 9.64165 126.011 10.4054C123.197 10.6516 120.684 11.47 118.503 12.7012C118.526 12.1952 118.516 11.6812 118.471 11.1614C117.992 5.69427 113.194 0.303984 106.307 0.906577C100.092 1.45028 95.5126 6.9079 96.0563 13.1224C96.0588 13.1508 96.0614 13.1791 96.0641 13.2073C95.6708 13.3256 95.2833 13.4727 94.9044 13.6492C93.7308 13.4799 92.236 13.3603 90.5562 13.5073C87.2993 13.7922 84.4069 15.0066 82.12 16.9468C80.1823 15.5919 78.0064 15.2316 76.2003 15.3896L70.2431 15.9108C68.8849 16.0296 67.4755 16.4677 66.2053 17.279C64.748 16.6772 63.2555 16.5222 61.9547 16.636L59.9662 16.8099C60.3025 15.6637 60.385 14.5175 60.2947 13.4846L60.2901 13.4328C60.0847 11.0848 58.9344 8.63298 56.6453 6.98421C54.4978 5.43746 52.1609 5.17392 50.4539 5.32327L42.7354 5.99855C41.0965 6.14194 39.3072 6.73158 37.7367 8.01056C36.1942 9.26678 35.3126 10.8205 34.8424 12.1889L34.8076 12.2902L31.0387 24.2957L25.1484 13.2071ZM56.6429 25.1312C56.1249 25.1766 55.794 25.5709 55.8439 26.1407L55.8484 26.1925C55.8983 26.7623 56.2317 26.9942 56.8106 27.0479C57.0105 27.0613 57.1947 27.0884 57.3647 27.1291C58.9683 27.513 59.3098 29.1059 59.5742 31.8306C59.595 32.045 59.6153 32.2663 59.6357 32.4947C59.6475 32.6264 59.6593 32.7605 59.6713 32.8969C59.6775 32.9679 59.6838 33.0397 59.6901 33.112L60.5059 42.4364C60.5697 43.1658 60.6639 43.9135 60.7979 44.6535C61.2262 47.0187 62.0617 49.3064 63.6151 50.6728C63.6332 50.6887 63.6514 50.7045 63.6697 50.7202C63.7554 50.7936 63.8432 50.8642 63.9332 50.9319C64.9209 51.6746 66.1732 52.0671 67.7568 51.9286C67.7648 51.9279 67.7727 51.9272 67.7807 51.9264C68.0751 51.8997 68.3581 51.8565 68.6313 51.7972C69.0413 51.7083 69.4292 51.5832 69.8005 51.4236C70.3652 51.1809 70.8915 50.8583 71.3987 50.4616C71.9284 50.0472 72.4372 49.5518 72.9471 48.9819C73.2476 48.646 73.5485 48.2842 73.8543 47.8978C73.9697 47.7519 74.0859 47.6025 74.203 47.4497C74.7184 46.7782 75.3063 46.9356 75.3789 47.7644L75.5828 50.0955C75.6327 50.6653 75.9234 51.0053 76.3378 50.969C76.5845 50.9475 76.8112 50.9091 77.038 50.8303C77.1921 50.7767 77.3462 50.7043 77.5066 50.6058L80.0488 49.235L82.9355 47.6253C82.9926 47.5926 83.0468 47.5585 83.0979 47.5233C83.1571 47.4825 83.2121 47.44 83.2629 47.3963C83.3005 47.364 83.3357 47.331 83.3686 47.2974C83.4159 47.249 83.4583 47.1993 83.4956 47.1487C83.5458 47.0807 83.5867 47.011 83.6178 46.9406C83.719 46.7121 83.7176 46.4761 83.5992 46.2623C83.4976 46.0787 83.3492 45.9606 83.1605 45.9001C83.022 45.8557 82.8617 45.8424 82.6824 45.857C82.5374 45.8689 82.38 45.899 82.2115 45.9458C82.1789 45.9548 82.1459 45.9645 82.1125 45.9747C82.0845 45.9838 82.0569 45.9924 82.0295 46.0006C82.0228 46.0026 82.0161 46.0046 82.0094 46.0066C81.9876 46.013 81.9661 46.0191 81.9447 46.025C81.7818 46.0698 81.6305 46.0992 81.4899 46.1139C81.4551 46.1176 81.421 46.1204 81.3875 46.1222C81.1901 46.1333 81.0149 46.1137 80.8592 46.0659C80.8301 46.057 80.8017 46.0471 80.774 46.0362C80.7742 46.0363 80.7738 46.0361 80.774 46.0362C80.1044 45.7733 79.8182 44.9464 79.6492 43.7846C79.605 43.4804 79.5688 43.1533 79.5357 42.8073C79.5051 42.4862 79.4772 42.1489 79.4482 41.7986L79.448 41.796C79.4473 41.7877 79.4466 41.7794 79.4459 41.7711C79.4381 41.6765 79.4302 41.5809 79.4221 41.4844C79.4169 41.422 79.4116 41.3593 79.4062 41.2963C79.4006 41.2304 79.3949 41.1642 79.3891 41.0975L77.9116 24.21C77.8897 23.9599 77.8015 23.7559 77.6611 23.6098C77.4818 23.4231 77.2173 23.3312 76.8976 23.3592L70.9403 23.8804C70.4223 23.9257 70.0914 24.32 70.1413 24.8899L70.1458 24.9417C70.1957 25.5115 70.5291 25.7433 71.108 25.7971C71.3368 25.8124 71.5451 25.8457 71.7351 25.8968C73.2823 26.313 73.6139 27.9095 73.8747 30.6119C73.8944 30.8163 73.9137 31.0269 73.9331 31.2438C73.9449 31.3756 73.9567 31.5096 73.9687 31.646C73.9749 31.7171 73.9812 31.7888 73.9875 31.8612L74.98 43.2058C75.0208 43.6721 74.9489 44.0437 74.618 44.4381C74.5298 44.5486 74.4421 44.6562 74.355 44.7609C74.2695 44.8636 74.1845 44.9636 74.1 45.0608C73.6555 45.5723 73.2245 46.0085 72.8036 46.3756C72.8032 46.3759 72.8028 46.3763 72.8023 46.3767C72.579 46.5714 72.3586 46.7467 72.1405 46.9035C71.2291 47.5588 70.3597 47.8903 69.498 47.9657C68.6228 48.0423 67.9254 47.8504 67.3679 47.4837C65.7085 46.3921 65.2899 43.7516 65.1187 42.0328C65.1023 41.8683 65.0882 41.7123 65.0755 41.5668L63.666 25.4564C63.6162 24.8865 63.2218 24.5557 62.652 24.6055L56.6429 25.1312ZM86.6959 49.332C86.7457 49.9019 87.0365 50.2418 87.3473 50.2146C87.6384 50.1892 87.7451 49.9779 87.9156 49.6403C87.9574 49.5574 88.0031 49.4669 88.0563 49.3696C88.087 49.3066 88.124 49.2514 88.1678 49.2033C88.3135 49.0434 88.5349 48.9624 88.8535 48.9345C89.079 48.9148 89.4346 48.9687 89.8871 49.0528C90.028 49.0791 90.1782 49.1082 90.3368 49.139C90.6204 49.194 90.9308 49.2542 91.2623 49.3121C92.3248 49.4977 93.6037 49.66 94.9104 49.5528C94.9277 49.5514 94.9449 49.5499 94.9622 49.5484C95.7933 49.4757 96.5816 49.3224 97.314 49.091C98.4163 48.7427 99.3919 48.2176 100.196 47.5246C100.218 47.5054 100.24 47.486 100.262 47.4666C101.581 46.2998 102.423 44.6702 102.58 42.6181C102.619 42.1053 102.616 41.5661 102.566 41.0011C102.536 40.6601 102.493 40.3343 102.432 40.0211C102.37 39.7032 102.291 39.3983 102.191 39.1041C102.17 39.0435 102.148 38.9833 102.126 38.9236C101.952 38.4608 101.724 38.0236 101.428 37.6016C100.996 36.9864 100.42 36.4036 99.6596 35.8209C99.5347 35.7252 99.4049 35.6295 99.2698 35.5336C97.8984 34.5605 95.9945 33.5729 93.3694 32.4214C93.3609 32.4177 93.3524 32.4139 93.3439 32.4102C93.0847 32.2966 92.8185 32.1815 92.5452 32.0645C92.0628 31.8568 91.6188 31.6518 91.2133 31.444C91.0654 31.3683 90.9226 31.2921 90.785 31.2154C90.6814 31.1576 90.5807 31.0995 90.4829 31.0409C89.7411 30.5965 89.1661 30.1251 88.7582 29.5771C88.3413 29.0172 88.0989 28.3774 88.0313 27.605C87.8652 25.7063 88.8925 23.9224 91.2176 23.4488C91.2488 23.4424 91.2801 23.4363 91.3117 23.4305C91.3484 23.4237 91.3854 23.4172 91.4227 23.411C91.5725 23.3862 91.7274 23.3667 91.8874 23.3527C92.8213 23.271 93.6231 23.3809 94.3185 23.6499C94.3921 23.6783 94.4644 23.7085 94.5356 23.7405C95.1297 24.0072 95.6429 24.3951 96.093 24.8818C96.552 25.378 96.9453 25.9769 97.2918 26.6548C97.4277 26.9208 97.5564 27.199 97.679 27.4879C97.8605 27.9155 98.0287 28.3666 98.1872 28.8365C98.2109 28.9069 98.2344 28.9777 98.2577 29.0489C98.2588 29.0522 98.2599 29.0556 98.261 29.0589C98.272 29.0927 98.283 29.1265 98.294 29.1604C98.3967 29.5359 98.5569 29.7659 98.776 29.8661C98.7774 29.8667 98.7787 29.8673 98.7801 29.8679C98.8872 29.9159 99.0083 29.9331 99.1435 29.9213C99.2069 29.9158 99.2661 29.8994 99.3205 29.8732C99.4118 29.8291 99.4893 29.757 99.5494 29.6613C99.6582 29.4881 99.71 29.2373 99.6835 28.9345L99.1054 21.7294C99.0555 21.1596 98.8166 20.8151 98.5058 20.8423C98.1611 20.8725 97.9773 21.1244 97.6796 21.5326L97.6323 21.5973C97.565 21.7113 97.4954 21.7981 97.424 21.8644C97.4191 21.869 97.4141 21.8735 97.4091 21.8779C97.2435 22.0245 97.0686 22.0642 96.8915 22.0797C96.6574 22.1002 96.3621 22.064 96.0132 22C95.9857 21.9949 95.9578 21.9897 95.9295 21.9843C95.7423 21.9485 95.5405 21.9057 95.3252 21.8601C95.1943 21.8323 95.0583 21.8035 94.9177 21.7746C94.0234 21.5906 92.9371 21.4017 91.7207 21.4476C91.567 21.4535 91.4112 21.463 91.2535 21.4768C88.7953 21.6919 87.031 22.885 85.9752 24.5882C85.3782 25.5512 85.0077 26.6773 84.8664 27.8819C84.7889 28.5423 84.7803 29.2262 84.8409 29.9198C84.915 30.7663 85.0898 31.5587 85.376 32.2939C85.5285 32.6859 85.7127 33.0617 85.9302 33.4208C86.1899 33.8495 86.497 34.2544 86.8542 34.6348C87.7306 35.5678 88.9088 36.3526 90.4293 36.9775C90.4334 36.9792 90.4376 36.9809 90.4417 36.9826C90.8568 37.1528 91.2974 37.311 91.7642 37.4571C92.6862 37.751 93.5682 38.0587 94.3746 38.4043C94.4463 38.4351 94.5174 38.4661 94.5879 38.4974C94.7733 38.5799 94.9545 38.6646 95.1309 38.7518C96.5024 39.4298 97.5856 40.2593 98.1659 41.3861C98.2863 41.6198 98.385 41.8662 98.4602 42.1268C98.5365 42.3912 98.5885 42.6702 98.6143 42.9651C98.7369 44.366 98.2304 45.8446 97.0686 46.7592C96.4799 47.2226 95.723 47.5412 94.7945 47.6315C94.7773 47.6332 94.76 47.6347 94.7427 47.6363C94.6879 47.6411 94.6334 47.6451 94.5791 47.6484C94.5525 47.65 94.526 47.6514 94.4995 47.6526C93.4485 47.7018 92.5122 47.464 91.6812 47.0067C91.4917 46.9025 91.3077 46.7868 91.1291 46.6605C90.5611 46.2589 90.0473 45.7501 89.5841 45.1596C89.5288 45.0892 89.4743 45.0176 89.4205 44.945C89.4105 44.9314 89.4004 44.9177 89.3904 44.904C89.0807 44.4811 88.7948 44.0211 88.5315 43.5324C88.4699 43.4181 88.4096 43.3021 88.3504 43.1847C88.1957 42.8776 88.0494 42.5605 87.9112 42.2353C87.7503 41.8568 87.6003 41.4673 87.461 41.0699C87.4591 41.0646 87.4572 41.0592 87.4554 41.0539C87.4454 41.0255 87.4356 40.9971 87.4257 40.9686C87.4179 40.9474 87.41 40.9267 87.4019 40.9064C87.3185 40.6962 87.2228 40.5357 87.1113 40.4219C86.9515 40.2588 86.7593 40.1917 86.5244 40.2123C86.4159 40.2218 86.3194 40.263 86.2389 40.3313C86.1832 40.3786 86.1351 40.4389 86.0959 40.5108C86.0026 40.6818 85.9597 40.918 85.9843 41.1991L86.6959 49.332ZM102.879 23.6821C102.618 23.9271 102.488 24.2075 102.511 24.4752C102.519 24.5742 102.548 24.6714 102.6 24.7644C102.699 24.9428 102.833 25.0519 103.003 25.1048C103.166 25.1555 103.363 25.1547 103.593 25.1139C103.717 25.092 103.851 25.0586 103.995 25.0155C104.006 25.012 104.018 25.0084 104.03 25.0047C104.068 24.9936 104.104 24.9833 104.14 24.9736C104.147 24.9718 104.154 24.9701 104.16 24.9684C104.452 24.892 104.708 24.8612 104.933 24.872C105.056 24.8779 105.17 24.8963 105.276 24.9266C106.043 25.1466 106.361 25.9931 106.543 27.2074C106.595 27.5517 106.636 27.9255 106.673 28.323C106.674 28.3397 106.676 28.3565 106.678 28.3733C106.703 28.6516 106.727 28.9414 106.752 29.2405C106.76 29.3401 106.768 29.4407 106.777 29.5423C106.782 29.6046 106.788 29.6673 106.793 29.7304C106.799 29.7963 106.804 29.8625 106.81 29.9291L107.653 39.5643C107.659 39.6367 107.666 39.7084 107.672 39.7795C107.684 39.9159 107.695 40.05 107.707 40.1818C107.717 40.3061 107.728 40.4284 107.737 40.5487C107.979 43.4849 107.969 45.2121 106.358 45.8789C106.209 45.9403 106.047 45.9928 105.87 46.0363C105.682 46.0877 105.525 46.154 105.401 46.2409C105.154 46.4133 105.038 46.6669 105.071 47.0458L105.076 47.0976C105.116 47.5566 105.38 47.8605 105.751 47.9378C105.841 47.9564 105.937 47.9618 106.038 47.953L115.311 47.1418C115.829 47.0965 116.159 46.7021 116.11 46.1323L116.105 46.0805C116.072 45.7015 115.913 45.4721 115.641 45.345C115.503 45.2811 115.337 45.2431 115.143 45.2251C112.91 45.0752 112.625 43.2168 112.318 39.7783C112.306 39.6466 112.294 39.5125 112.282 39.3762C112.276 39.3051 112.27 39.2333 112.263 39.161L110.668 20.9266C110.618 20.3568 110.328 20.0169 109.913 20.0531C109.65 20.0761 109.41 20.1181 109.169 20.2077C109.029 20.2595 108.889 20.3272 108.744 20.4164L106.15 21.7917L103.264 23.4014C103.222 23.4252 103.182 23.4498 103.144 23.475C103.044 23.5401 102.956 23.6095 102.879 23.6821ZM118.876 22.9494C117.311 25.193 116.436 28.0464 116.292 31.0309C116.252 31.858 116.268 32.6951 116.342 33.5321C116.451 34.7814 116.699 36.1189 117.091 37.4455C117.103 37.4882 117.116 37.5308 117.129 37.5735C117.243 37.9516 117.37 38.3286 117.508 38.7022C118.534 41.4785 120.216 44.0638 122.609 45.5115C122.634 45.5268 122.659 45.542 122.685 45.557C123.136 45.824 123.612 46.0505 124.114 46.2305C125.212 46.6244 126.431 46.7953 127.775 46.6777C128.509 46.6135 129.192 46.4729 129.827 46.2655C132.555 45.3742 134.397 43.2478 135.581 40.6321C136.248 39.1606 136.706 37.5342 136.997 35.8858C136.997 35.8852 136.997 35.8846 136.997 35.884C137.012 35.8015 137.026 35.7188 137.04 35.6362C137.15 35.1046 136.963 34.7555 136.535 34.6364C136.124 34.571 135.836 34.7897 135.628 35.3439C135.622 35.3609 135.616 35.3783 135.609 35.3959C135.609 35.3967 135.609 35.3975 135.609 35.3983C134.732 37.8891 133.629 39.9634 131.832 41.0313C131.143 41.4406 130.353 41.702 129.434 41.7824C128.679 41.8485 127.979 41.7862 127.332 41.618C123.825 40.7058 121.879 36.6783 121.074 33.1181C120.878 32.2491 120.749 31.408 120.683 30.6468C120.352 26.8652 121.247 20.9928 126.013 20.5759C126.331 20.5481 126.626 20.5476 126.9 20.5728C127.595 20.6366 128.153 20.8655 128.588 21.2355C129.214 21.7689 129.582 22.5955 129.727 23.6439C129.789 23.966 129.868 24.2739 129.965 24.5627C130.454 26.0226 131.409 26.9941 133.138 26.8427C135.055 26.675 135.624 25.4247 135.507 24.0778C135.472 23.6849 135.379 23.2832 135.231 22.8838C135.196 22.7875 135.157 22.6915 135.115 22.5957C134.636 21.5055 133.747 20.4527 132.511 19.6661C132.178 19.4544 131.82 19.2619 131.438 19.0932C130.127 18.5146 128.534 18.2152 126.708 18.375C126.409 18.4011 126.117 18.4381 125.83 18.4856C122.815 18.9859 120.482 20.6464 118.876 22.9494ZM128.218 26.4172C128.228 26.4222 128.233 26.4254 128.233 26.4257C128.233 26.426 128.228 26.4235 128.218 26.4172ZM112.011 12.2943C111.524 12.1756 111.024 12.0987 110.513 12.0669C110.541 13.0701 110.128 13.9684 109.434 14.5732C108.937 15.0055 108.297 15.2878 107.57 15.3514C106.98 15.4031 106.415 15.303 105.916 15.082C105.657 14.9673 105.416 14.8199 105.198 14.6443C104.869 14.379 104.594 14.049 104.392 13.6693L103.232 14.2841C103.142 14.2227 103.05 14.1624 102.957 14.1036C102.721 13.5999 102.577 13.0707 102.532 12.5559C102.305 9.96754 104.285 7.6083 106.873 7.38184C109.294 7.17008 111.754 8.97351 111.995 11.7279C112.012 11.9185 112.017 12.1075 112.011 12.2943ZM7.33741 50.5708C7.33724 50.5705 7.33756 50.5618 7.33886 50.5452C7.33823 50.5628 7.33758 50.571 7.33741 50.5708Z" fill="white"/>
<path d="M98.4023 72.8098C97.8125 72.8098 97.4587 72.5345 97.4587 72.102V72.0627C97.4587 71.6302 97.7732 71.4336 98.4023 71.355C100.84 71.0797 100.84 69.507 100.84 66.5974V49.2971C100.84 46.3875 100.84 44.8147 98.4023 44.5395C97.7732 44.4609 97.4587 44.2643 97.4587 43.8318V43.7924C97.4587 43.3599 97.8125 43.0847 98.4023 43.0847H109.608C115.073 43.0847 118.298 46.1516 118.298 50.7519C118.298 55.7061 114.405 59.6379 109.215 59.6379C108.311 59.6379 107.249 59.52 105.716 59.3234C105.204 59.2448 104.929 59.4807 104.929 59.9525V66.5974C104.929 69.507 104.929 71.0797 107.367 71.355C107.996 71.4336 108.311 71.6302 108.311 72.0627V72.102C108.311 72.5345 107.957 72.8098 107.367 72.8098H98.4023ZM104.929 56.9249C104.929 57.3181 105.126 57.5934 105.558 57.7113C106.738 57.9472 107.485 57.9866 107.957 57.9866C111.535 57.9866 113.697 54.841 113.697 51.1844C113.697 47.4491 111.417 44.9327 107.839 44.9327C107.446 44.9327 106.738 44.972 105.598 45.2079C105.126 45.2866 104.929 45.5225 104.929 45.955V56.9249Z" fill="#0C0B0A"/>
<path d="M123.912 73.2816C120.845 73.2816 119.508 70.4899 119.508 68.1308C119.508 63.8451 124.108 61.7612 129.062 59.6773C129.456 59.52 129.613 59.2448 129.613 58.8516C129.534 55.5488 129.102 53.3862 126.349 53.3862C123.99 53.3862 123.754 55.1163 123.794 57.0036C123.794 57.9472 123.4 59.1661 122.024 59.1661C120.727 59.1661 120.216 58.1045 120.216 56.9249C120.216 54.3299 122.653 51.8921 127.293 51.8921C132.208 51.8921 133.152 54.5658 133.152 59.0088V68.6026C133.152 69.7822 133.466 70.372 133.977 70.372C134.174 70.372 134.449 70.2934 134.96 69.8215C135.314 69.507 135.589 69.389 135.865 69.6249C136.1 69.8215 136.14 70.1361 135.865 70.4899C134.724 72.0234 133.309 73.2423 131.775 73.2423C130.557 73.2423 129.888 72.4952 129.731 70.9618C129.692 70.4506 129.377 70.372 128.866 70.7652C127.214 72.1807 125.799 73.2816 123.912 73.2816ZM123.086 67.0299C123.086 68.7599 123.99 70.6079 125.681 70.6079C126.585 70.6079 127.608 70.0574 129.18 68.7992C129.495 68.5633 129.613 68.2881 129.613 67.9342V61.8791C129.613 61.368 129.102 61.1714 128.315 61.5252C124.973 63.0587 123.086 64.5135 123.086 67.0299Z" fill="#0C0B0A"/>
<path d="M144.945 73.2816C140.069 73.2816 137.435 68.0522 137.435 63.3732C137.435 58.4191 140.305 51.8921 146.242 51.8921C147.265 51.8921 148.13 52.0887 149.348 52.7571C149.86 53.0324 150.213 52.8358 150.213 52.2853V50.0048C150.213 47.5277 150.371 45.7191 148.444 46.1123C147.894 46.2302 147.54 46.1909 147.383 45.837C147.225 45.4832 147.461 45.09 147.972 44.8541L150.253 43.8318L152.297 42.9668C152.612 42.8095 152.887 42.7702 153.202 42.7702C153.516 42.7702 153.713 43.0454 153.713 43.4779V65.8896C153.713 68.3667 153.556 70.1754 155.482 69.7822C156.033 69.6642 156.387 69.7036 156.544 70.0574C156.701 70.4113 156.465 70.8045 155.954 71.0404L153.674 72.0627L151.629 72.9277C151.314 73.085 151.039 73.1243 150.725 73.1243C150.41 73.1243 150.213 72.8491 150.213 72.4166V71.8661C150.213 71.2763 149.702 71.1977 149.073 71.7088C147.697 72.8098 146.478 73.2816 144.945 73.2816ZM141.288 61.6432C141.288 65.4178 142.704 70.7259 146.596 70.7259C147.815 70.7259 148.916 70.1754 149.86 69.1924C150.135 68.9172 150.213 68.642 150.213 68.2881V58.3011C150.213 56.1386 148.641 53.4256 145.928 53.4256C142.389 53.4256 141.288 58.3011 141.288 61.6432Z" fill="#0C0B0A"/>
<path fill-rule="evenodd" clip-rule="evenodd" d="M94.791 66.2642V49.6303C94.5827 49.5129 94.3728 49.3802 94.1641 49.2303C92.2859 47.8803 91.4096 45.8166 91.4096 43.8318V43.7924C91.4096 41.7381 92.3412 39.7543 94.0565 38.4547C95.5881 37.2945 97.2529 37.0357 98.4023 37.0357H109.608C113.445 37.0357 117.192 38.1224 120.051 40.6992C121.781 42.2579 122.968 44.1666 123.648 46.2488C124.836 45.9795 126.065 45.8431 127.293 45.8431C130.649 45.8431 134.248 46.7586 136.672 49.8437C137.962 48.5602 139.531 47.4587 141.38 46.7384C141.089 45.0645 141.485 43.4466 142.24 42.1891C143.135 40.6967 144.416 39.833 145.437 39.3618L145.468 39.3478L147.837 38.2857L149.822 37.446C151.123 36.8458 152.306 36.7211 153.202 36.7211C155.357 36.7211 157.29 37.7687 158.484 39.4273C159.537 40.8896 159.762 42.4374 159.762 43.4779V64.8254C160.746 65.4946 161.554 66.4369 162.072 67.6007C163.048 69.7979 162.674 72.0602 161.687 73.7054C160.791 75.1978 159.51 76.0615 158.489 76.5327L158.459 76.5466L156.089 77.6087L154.105 78.4484C152.804 79.0487 151.62 79.1734 150.725 79.1734C149.96 79.1734 149.224 79.0416 148.539 78.7977C147.43 79.144 146.24 79.3306 144.945 79.3306C142.137 79.3306 139.764 78.4382 137.852 77.0872C136.313 78.2859 134.284 79.2913 131.775 79.2913C130.617 79.2913 129.346 79.058 128.143 78.4624C126.92 78.9753 125.507 79.3306 123.912 79.3306C120.26 79.3306 117.405 77.5519 115.657 75.1343C115.099 74.3627 114.663 73.5449 114.332 72.7138C114.166 74.5452 113.257 76.2698 111.713 77.4397C110.181 78.6 108.516 78.8588 107.367 78.8588H98.4023C97.2529 78.8588 95.5881 78.6 94.0565 77.4397C92.3412 76.1402 91.4096 74.1564 91.4096 72.102V72.0627C91.4096 70.0779 92.2859 68.0142 94.1641 66.6642C94.3728 66.5142 94.5827 66.3816 94.791 66.2642ZM113.473 68.7227C113.464 68.5227 113.459 68.3252 113.459 68.1308C113.459 66.9942 113.614 65.947 113.887 64.9846C112.956 65.2746 111.983 65.4795 110.978 65.5905V66.2642C111.187 66.3816 111.397 66.5142 111.605 66.6642C112.407 67.2408 113.027 67.9475 113.473 68.7227ZM135.735 70.661C135.779 70.6045 135.822 70.5474 135.865 70.4899C136.14 70.1361 136.1 69.8215 135.865 69.6249C135.777 69.5503 135.69 69.511 135.601 69.5023C135.565 69.4988 135.529 69.5001 135.493 69.5059C135.483 69.5075 135.473 69.5095 135.462 69.5118C135.315 69.5449 135.158 69.6487 134.981 69.803C134.975 69.8084 134.969 69.8138 134.963 69.8193C134.962 69.8201 134.961 69.8208 134.96 69.8215C134.449 70.2934 134.174 70.372 133.977 70.372C133.466 70.372 133.152 69.7822 133.152 68.6026V59.0088C133.152 58.9562 133.151 58.9037 133.151 58.8516C133.151 58.8234 133.151 58.7953 133.151 58.7673C133.144 57.984 133.106 57.2578 133.018 56.5939C132.979 56.293 132.929 56.0049 132.867 55.7301C132.319 53.2848 130.84 51.8921 127.293 51.8921C126.968 51.8921 126.653 51.9041 126.349 51.9273C125.587 51.9856 124.893 52.1145 124.269 52.3016C123.566 52.5126 122.952 52.7976 122.429 53.1388C122.287 53.2311 122.153 53.3275 122.024 53.4277C120.828 54.3623 120.216 55.6239 120.216 56.9249C120.216 56.9512 120.216 56.9774 120.216 57.0036C120.217 57.0285 120.218 57.0533 120.219 57.0781C120.221 57.1413 120.225 57.2041 120.231 57.2663C120.29 57.9349 120.533 58.5322 121.012 58.8715C121.224 59.0211 121.481 59.1206 121.789 59.1538C121.865 59.1619 121.943 59.1661 122.024 59.1661C122.818 59.1661 123.284 58.7611 123.537 58.2373C123.58 58.1495 123.616 58.0584 123.647 57.9653C123.665 57.91 123.682 57.854 123.696 57.7976C123.723 57.6957 123.743 57.5925 123.758 57.4895C123.782 57.3308 123.793 57.1728 123.794 57.0215C123.794 57.0155 123.794 57.0096 123.794 57.0036C123.793 56.9773 123.793 56.9511 123.792 56.9249C123.783 56.3634 123.8 55.8179 123.894 55.33C123.998 54.7855 124.196 54.3128 124.557 53.97C124.942 53.6043 125.512 53.3862 126.349 53.3862C126.7 53.3862 127.014 53.4214 127.293 53.4896C128.261 53.7255 128.825 54.3571 129.156 55.2965C129.318 55.7558 129.423 56.2887 129.493 56.8848C129.498 56.9242 129.502 56.9637 129.506 57.0036C129.516 57.0968 129.525 57.1915 129.534 57.2876C129.576 57.7735 129.6 58.2964 129.613 58.8516C129.613 58.9063 129.61 58.9587 129.604 59.0088C129.565 59.3191 129.401 59.5419 129.062 59.6773C128.617 59.8647 128.174 60.0521 127.737 60.2411C127.734 60.2425 127.731 60.2438 127.728 60.2452C127.518 60.3361 127.309 60.4274 127.103 60.5192C126.123 60.9539 125.183 61.4009 124.317 61.8791C124.065 62.0184 123.82 62.1603 123.581 62.3053C123.575 62.3089 123.57 62.3124 123.564 62.3159C123.007 62.6556 122.49 63.0123 122.024 63.3922C121.399 63.9026 120.866 64.4547 120.454 65.0631C120.049 65.66 119.761 66.3111 119.616 67.0299C119.545 67.3802 119.508 67.7467 119.508 68.1308C119.508 70.4899 120.845 73.2816 123.912 73.2816C123.949 73.2816 123.986 73.2811 124.023 73.2803C124.082 73.2789 124.14 73.2765 124.197 73.2731C124.722 73.2416 125.211 73.1241 125.681 72.9386C126.346 72.6763 126.972 72.2784 127.607 71.796C127.896 71.5764 128.187 71.3393 128.484 71.0896C128.498 71.0779 128.512 71.0662 128.526 71.0545C128.638 70.9597 128.751 70.8632 128.866 70.7652C129.377 70.372 129.692 70.4506 129.731 70.9618C129.775 71.3947 129.86 71.7649 129.987 72.0734C130.171 72.5218 130.444 72.8397 130.807 73.0296C130.848 73.0514 130.891 73.0714 130.935 73.0899C131.178 73.1917 131.458 73.2423 131.775 73.2423C132.004 73.2423 132.231 73.2151 132.454 73.1638C132.514 73.1499 132.574 73.1342 132.634 73.1168C132.748 73.084 132.86 73.0451 132.971 73.0005C133.013 72.9839 133.054 72.9666 133.095 72.9484C133.33 72.8449 133.561 72.7163 133.786 72.5666C133.85 72.5241 133.914 72.4799 133.977 72.434C134.058 72.3758 134.137 72.315 134.216 72.2518C134.754 71.821 135.259 71.2775 135.722 70.6783C135.726 70.6726 135.731 70.6668 135.735 70.661ZM129.613 61.8791C129.613 61.4596 129.268 61.2519 128.71 61.3867C128.588 61.4161 128.456 61.4618 128.315 61.5252C128.058 61.6435 127.809 61.7613 127.568 61.8791C127.409 61.9572 127.254 62.0353 127.103 62.1136C125.805 62.7848 124.797 63.469 124.115 64.2621C123.898 64.5152 123.714 64.7793 123.564 65.0577C123.561 65.062 123.559 65.0663 123.557 65.0706C123.247 65.6523 123.086 66.2959 123.086 67.0299C123.086 67.3978 123.127 67.7711 123.208 68.1308C123.339 68.7157 123.575 69.2647 123.912 69.6964C124.341 70.2477 124.935 70.6079 125.681 70.6079C126.141 70.6079 126.631 70.4656 127.209 70.1602C127.443 70.0364 127.692 69.8857 127.959 69.7069C127.979 69.6933 127.999 69.6795 128.02 69.6656C128.372 69.4262 128.756 69.1384 129.18 68.7992C129.264 68.7367 129.333 68.6714 129.391 68.6026C129.549 68.4119 129.613 68.1943 129.613 67.9342V61.8791ZM137.656 65.7486C137.74 66.2007 137.847 66.6489 137.979 67.0881C137.984 67.1055 137.989 67.1229 137.994 67.1403C138.147 67.6424 138.33 68.1324 138.543 68.6026C139.256 70.1755 140.306 71.5266 141.674 72.3668C142.425 72.8281 143.272 73.1354 144.211 73.241C144.258 73.2462 144.305 73.251 144.353 73.2553C144.546 73.2727 144.744 73.2816 144.945 73.2816C145.533 73.2816 146.074 73.2122 146.596 73.0647C147.097 72.9232 147.579 72.7098 148.067 72.4166C148.256 72.3032 148.446 72.1778 148.637 72.0401C148.715 71.9842 148.793 71.9262 148.872 71.8661C148.939 71.8152 149.006 71.7628 149.073 71.7088C149.702 71.1977 150.213 71.2763 150.213 71.8661V72.4166C150.213 72.8491 150.41 73.1243 150.725 73.1243C150.924 73.1243 151.108 73.1085 151.295 73.0569C151.404 73.0271 151.514 72.9853 151.629 72.9277L153.674 72.0627L155.954 71.0404C155.987 71.0252 156.019 71.0094 156.049 70.9929C156.101 70.9649 156.15 70.9352 156.195 70.904C156.535 70.6688 156.674 70.3497 156.544 70.0574C156.46 69.8699 156.322 69.7707 156.128 69.7364C156.064 69.7252 155.995 69.721 155.919 69.7229C155.798 69.726 155.662 69.7449 155.51 69.7764C155.501 69.7783 155.491 69.7802 155.482 69.7822C155.453 69.7881 155.425 69.7935 155.397 69.7984C155.392 69.7993 155.387 69.8001 155.382 69.801C154.247 69.9943 153.879 69.3728 153.762 68.2881C153.751 68.1822 153.742 68.0718 153.734 67.9574C153.71 67.5589 153.709 67.1108 153.71 66.627C153.711 66.5562 153.711 66.4846 153.711 66.4122C153.712 66.3367 153.712 66.2603 153.712 66.1832C153.712 66.1359 153.713 66.0883 153.713 66.0405C153.713 65.9905 153.713 65.9402 153.713 65.8896V43.4779C153.713 43.0454 153.516 42.7702 153.202 42.7702C153.002 42.7702 152.819 42.786 152.631 42.8376C152.522 42.8674 152.413 42.9092 152.297 42.9668L150.253 43.8318L147.972 44.8541C147.939 44.8693 147.908 44.8851 147.877 44.9016C147.798 44.944 147.727 44.9905 147.664 45.0401C147.373 45.2694 147.262 45.5648 147.383 45.837C147.392 45.8578 147.402 45.8775 147.412 45.8962C147.473 46.0039 147.557 46.0765 147.664 46.12C147.847 46.1951 148.098 46.184 148.417 46.1181C148.426 46.1162 148.435 46.1142 148.444 46.1123C148.473 46.1064 148.501 46.101 148.529 46.0961C148.534 46.0952 148.539 46.0943 148.544 46.0935C148.578 46.0878 148.61 46.0828 148.642 46.0786C149.146 46.0112 149.489 46.1156 149.723 46.3572C149.843 46.4813 149.935 46.6417 150.004 46.8336C150.111 47.1314 150.165 47.5051 150.192 47.9371C150.2 48.0698 150.206 48.2081 150.21 48.3513C150.219 48.701 150.217 49.0805 150.215 49.4822C150.215 49.5578 150.214 49.6342 150.214 49.7113C150.214 49.7586 150.214 49.8062 150.214 49.854C150.214 49.904 150.213 49.9543 150.213 50.0048V52.2853C150.213 52.8358 149.86 53.0324 149.348 52.7571C148.992 52.5619 148.667 52.4069 148.358 52.2853C148.298 52.2615 148.238 52.239 148.179 52.2177C148.003 52.1543 147.832 52.1018 147.664 52.0589C147.188 51.9375 146.734 51.8921 146.242 51.8921C146.136 51.8921 146.032 51.8942 145.928 51.8983C145.91 51.899 145.893 51.8998 145.875 51.9006C145.273 51.9284 144.703 52.0247 144.166 52.1803C144.165 52.1805 144.165 52.1806 144.164 52.1807C141.905 52.8363 140.225 54.5438 139.109 56.6289C138.705 57.3834 138.375 58.1874 138.118 59.0088C137.845 59.88 137.655 60.7708 137.545 61.6432C137.472 62.2322 137.435 62.8128 137.435 63.3732C137.435 63.4923 137.437 63.6118 137.44 63.7315C137.459 64.4012 137.531 65.0791 137.656 65.7486ZM147.664 53.8419C147.238 53.6224 146.763 53.4793 146.242 53.4379C146.139 53.4298 146.034 53.4256 145.928 53.4256C142.389 53.4256 141.288 58.3011 141.288 61.6432C141.288 62.1943 141.318 62.7781 141.382 63.3732C141.686 66.2159 142.754 69.3184 144.945 70.3612C145.437 70.5955 145.986 70.7259 146.596 70.7259C147.094 70.7259 147.571 70.6342 148.027 70.4588C148.035 70.4558 148.042 70.4528 148.05 70.4498C148.054 70.4482 148.058 70.4466 148.062 70.445C148.684 70.1992 149.264 69.797 149.795 69.2591C149.816 69.2371 149.838 69.2149 149.86 69.1924C149.908 69.1441 149.95 69.0957 149.987 69.047C150.16 68.8181 150.213 68.5798 150.213 68.2881V58.3011C150.213 56.9465 149.596 55.3759 148.468 54.3914C148.465 54.3882 148.461 54.3851 148.457 54.3819C148.216 54.1724 147.951 53.9898 147.664 53.8419ZM152.827 76.4526C152.852 76.4329 152.87 76.4179 152.881 76.4088L152.87 76.418L152.852 76.4323C152.844 76.4391 152.835 76.4458 152.827 76.4526ZM98.4023 43.0847C97.8125 43.0847 97.4587 43.3599 97.4587 43.7924V43.8318C97.4587 44.2643 97.7732 44.4609 98.4023 44.5395C98.6208 44.5642 98.8197 44.5993 99.0007 44.6448C99.8403 44.8559 100.297 45.2917 100.545 45.955C100.779 46.5822 100.828 47.4128 100.837 48.4492C100.84 48.6682 100.84 48.8964 100.84 49.1338C100.84 49.1877 100.84 49.2422 100.84 49.2971V66.5974C100.84 66.6523 100.84 66.7067 100.84 66.7607C100.84 66.9981 100.84 67.2263 100.837 67.4453C100.818 69.4507 100.655 70.6856 99.2774 71.1672C99.0277 71.2545 98.7382 71.317 98.4023 71.355C97.7732 71.4336 97.4587 71.6302 97.4587 72.0627V72.102C97.4587 72.5345 97.8125 72.8098 98.4023 72.8098H107.367C107.957 72.8098 108.311 72.5345 108.311 72.102V72.0627C108.311 71.6302 107.996 71.4336 107.367 71.355C107.031 71.317 106.742 71.2545 106.492 71.1672C105.114 70.6856 104.951 69.4507 104.932 67.4453C104.93 67.2263 104.929 66.9981 104.929 66.7607C104.929 66.7067 104.929 66.6523 104.929 66.5974V59.9525C104.929 59.7527 104.979 59.5952 105.074 59.4859C105.116 59.4381 105.167 59.3996 105.226 59.3708C105.352 59.31 105.516 59.2926 105.716 59.3234C106.141 59.3779 106.53 59.4264 106.889 59.468C107.277 59.5128 107.63 59.5496 107.957 59.5774C108.42 59.6168 108.832 59.6379 109.215 59.6379C111.108 59.6379 112.829 59.1147 114.251 58.2096C114.829 57.8414 115.358 57.41 115.829 56.9249C117.282 55.4291 118.184 53.4227 118.288 51.1844C118.294 51.0411 118.298 50.897 118.298 50.7519C118.298 50.0741 118.228 49.4296 118.091 48.8232C117.299 45.3144 114.268 43.0847 109.608 43.0847H98.4023ZM105.598 45.2079C105.126 45.2866 104.929 45.5225 104.929 45.955V56.9249C104.929 57.3181 105.126 57.5934 105.558 57.7113C105.681 57.7359 105.8 57.7584 105.914 57.7789C105.927 57.7812 105.939 57.7835 105.952 57.7858C106.307 57.849 106.618 57.893 106.889 57.9232C107.348 57.9744 107.695 57.9866 107.957 57.9866C108.398 57.9866 108.818 57.9387 109.215 57.8479C112.035 57.2027 113.697 54.3899 113.697 51.1844C113.697 51.0383 113.694 50.8941 113.687 50.7519C113.548 47.8988 112.031 45.8266 109.608 45.1611C109.063 45.0112 108.471 44.9327 107.839 44.9327C107.572 44.9327 107.161 44.9508 106.567 45.0361C106.286 45.0765 105.964 45.1321 105.598 45.2079Z" fill="white"/>
</svg>
